<?xml version="1.0" encoding="UTF-8" standalone="no"?>
<!-- Created with Inkscape (http://www.inkscape.org/) -->

<svg
   width="18.741215"
   height="9.93501"
   viewBox="0 0 18.741215 9.93501"
   version="1.1"
   id="svg1"
   xmlns="http://www.w3.org/2000/svg"
   xmlns:svg="http://www.w3.org/2000/svg">
  <defs
     id="defs1" />
  <g
     id="layer1"
     transform="translate(-242.78908,-145.57913)">
    <g
       id="g9"
       transform="translate(160)">
      <path
         d="m 248.89317,151.58101 q 0,0 -0.0472,-4.83769 -0.008,-0.47197 0.33038,-0.81808 0.34611,-0.33824 0.83381,-0.34611 h 0.0315 q 0.62143,0 0.95967,0.33825 0.33825,0.33824 0.33038,0.82594 v 4.57811 q 0,1.73055 -1.21139,2.96554 -1.21138,1.23499 -2.94981,1.22712 h -0.0865 q -1.78562,0 -3.04421,-1.25858 -1.25072,-1.25072 -1.25072,-3.04421 v -4.46798 q 0,-0.4877 0.33825,-0.81808 0.33824,-0.33824 0.96753,-0.34611 h 0.0315 q 0.47984,0 0.81808,0.34611 0.33824,0.34611 0.33038,0.81808 l -0.0472,4.79836 q -0.008,0.79448 0.57423,1.35298 0.5821,0.56637 1.25072,0.56637 h 0.0551 q 0.66076,0 1.22713,-0.5585 0.56636,-0.56637 0.55849,-1.32152 z m 3.99962,-4.38932 q -0.18879,-0.56636 0.15733,-1.05406 0.34611,-0.4877 0.9282,-0.47984 h 0.27532 q 0.36971,0 0.68435,0.22812 0.31465,0.22812 0.40905,0.58996 l 0.88887,3.39819 q 0.73155,2.5565 0.92821,3.50044 h 0.0472 q 0.0551,-0.28318 0.94394,-3.44538 l 0.86527,-3.46898 q 0.0865,-0.33824 0.40904,-0.57423 0.32252,-0.23598 0.91248,-0.22812 h 0.0236 q 0.59782,0 0.94394,0.4877 0.34611,0.48771 0.14945,1.06194 l -2.38344,7.03235 q -0.20452,0.59782 -0.74729,0.93607 -0.54276,0.33824 -1.07766,0.33824 h -0.22026 q -0.62142,-0.008 -1.12486,-0.35397 -0.5113,-0.36971 -0.70009,-0.95181 z"
         id="text12"
         style="font-size:16.1099px;font-family:Dyuthi;-inkscape-font-specification:Dyuthi;text-align:center;letter-spacing:0.34972px;word-spacing:0px;text-anchor:middle;fill:#ffffff;stroke-width:0.516955;stroke-linecap:round;stroke-linejoin:round;paint-order:markers stroke fill"
         aria-label="UV"
         transform="translate(-160)" />
    </g>
  </g>
</svg>
